<svg id="Layer_1" height="512" viewBox="0 0 512 512" width="512" xmlns="http://www.w3.org/2000/svg" data-name="Layer 1"><path d="m492.9 177.13a51.04 51.04 0 0 1 -8.35 28.04 52.112 52.112 0 0 1 -95.71-28.04 51.491 51.491 0 0 1 26.02-44.7 52.562 52.562 0 0 1 42.53-4.26l.44.15a52.573 52.573 0 0 1 9.06 4.11 51.5 51.5 0 0 1 26.01 44.7z" fill="#f2cf7d"/><path d="m347.38 388.39a104.372 104.372 0 0 1 -13.35 51.23 106.863 106.863 0 0 1 -193.12-14.89l-.02-.06a104.7 104.7 0 0 1 -6.45-36.28c0-58.33 47.67-105.61 106.47-105.61s106.47 47.28 106.47 105.61z" fill="#56568c"/><path d="m140.91 24.37a87.953 87.953 0 0 1 55.47 81.56c0 48.56-39.68 87.92-88.64 87.92a88.681 88.681 0 0 1 -81.68-53.7l-.02-.04a87.08 87.08 0 0 1 -6.94-34.18c0-48.56 39.68-87.93 88.64-87.93a88.911 88.911 0 0 1 33.17 6.37z" fill="#4a5160"/><path d="m107.74 48.29c32.69 0 59.2 26.29 59.2 58.72s-26.51 58.72-59.2 58.72-59.2-26.29-59.2-58.72 26.5-58.72 59.2-58.72z" fill="#628db2"/><path d="m107.74 73.01a34 34 0 1 1 -34 34 34 34 0 0 1 34-34z" fill="#527c95"/><circle cx="107.74" cy="107.01" fill="#4a5160" r="14"/><path d="m240.91 309.52c43.91 0 79.51 35.31 79.51 78.87s-35.6 78.86-79.51 78.86-79.51-35.31-79.51-78.86 35.6-78.87 79.51-78.87z" fill="#e87187"/><path d="m440.87 152.72a24.406 24.406 0 1 1 -24.6 24.41 24.513 24.513 0 0 1 24.6-24.41z" fill="#6d7486"/><ellipse cx="240.91" cy="388.39" fill="#6d7486" rx="27.42" ry="27.2"/><path d="m56.06 140.15-.02-.04a87.08 87.08 0 0 1 -6.94-34.18c0-43.467 31.795-79.565 73.578-86.66a89.752 89.752 0 0 0 -14.938-1.27c-48.96 0-88.64 39.37-88.64 87.93a87.08 87.08 0 0 0 6.94 34.18l.02.04a88.681 88.681 0 0 0 81.68 53.7 90 90 0 0 0 15.029-1.264 88.629 88.629 0 0 1 -66.709-52.436z" fill="#5a616d"/><path d="m191.4 388.39c0-38.471 27.774-70.489 64.51-77.449a80.472 80.472 0 0 0 -15-1.421c-43.91 0-79.51 35.31-79.51 78.87s35.6 78.86 79.51 78.86a80.472 80.472 0 0 0 15-1.421c-36.736-6.96-64.51-38.977-64.51-77.439z" fill="#c9657a"/><g fill="#6d7486"><path d="m140.909 430.728a6 6 0 0 1 -5.566-3.756l-114.865-284.62a6 6 0 0 1 11.129-4.492l114.865 284.621a6 6 0 0 1 -5.563 8.247z"/><path d="m457.831 134.321a5.983 5.983 0 0 1 -1.871-.3l-316.923-103.952a6 6 0 1 1 3.74-11.4l316.923 103.95a6 6 0 0 1 -1.869 11.7z"/><path d="m334.024 445.617a6 6 0 0 1 -5.043-9.243l150.533-234.45a6 6 0 0 1 10.1 6.483l-150.535 234.451a6 6 0 0 1 -5.055 2.759z"/></g><path d="m174.26 113.01a6 6 0 0 0 0-12h-1.612c-.153-1.643-.373-3.266-.648-4.871l1.534-.408a6 6 0 1 0 -3.082-11.6l-1.567.417c-.578-1.546-1.225-3.058-1.916-4.545l1.361-.78a6 6 0 0 0 -5.965-10.414l-1.444.828c-.963-1.346-1.964-2.662-3.025-3.929l1.106-1.1a6 6 0 1 0 -8.451-8.519l-1.17 1.16c-1.283-1.06-2.615-2.062-3.979-3.024l.783-1.345a6 6 0 1 0 -10.371-6.036l-.814 1.397c-1.523-.7-3.069-1.35-4.651-1.933l.4-1.469a6 6 0 1 0 -11.584-3.13l-.411 1.522c-1.651-.28-3.322-.5-5.014-.657v-1.548a6 6 0 0 0 -12 0v1.548c-1.691.154-3.361.377-5.012.657l-.412-1.521a6 6 0 0 0 -11.586 3.129l.4 1.469c-1.582.583-3.129 1.235-4.65 1.934l-.812-1.394a6 6 0 0 0 -10.371 6.037l.783 1.345c-1.363.961-2.695 1.963-3.978 3.023l-1.17-1.16a6 6 0 1 0 -8.451 8.519l1.106 1.1c-1.061 1.267-2.063 2.583-3.025 3.93l-1.447-.829a6 6 0 0 0 -5.963 10.414l1.358.773c-.692 1.488-1.338 3-1.916 4.546l-1.568-.417a6 6 0 0 0 -3.082 11.6l1.534.408c-.275 1.605-.5 3.228-.648 4.871h-1.612a6 6 0 0 0 0 12h1.612c.153 1.643.373 3.266.648 4.871l-1.534.408a6 6 0 1 0 3.082 11.6l1.568-.417c.578 1.546 1.224 3.058 1.916 4.546l-1.362.779a6 6 0 1 0 5.963 10.413l1.447-.828c.962 1.347 1.964 2.663 3.025 3.93l-1.106 1.1a6 6 0 0 0 8.451 8.519l1.17-1.16c1.283 1.06 2.615 2.062 3.978 3.023l-.783 1.345a6 6 0 1 0 10.371 6.037l.812-1.393c1.521.7 3.068 1.35 4.65 1.933l-.4 1.469a6 6 0 1 0 11.586 3.129l.412-1.521c1.651.28 3.321.5 5.012.657v1.548a6 6 0 0 0 12 0v-1.548c1.692-.154 3.363-.377 5.014-.657l.411 1.521a6 6 0 1 0 11.584-3.129l-.4-1.469c1.582-.582 3.128-1.235 4.651-1.933l.811 1.393a6 6 0 1 0 10.371-6.036l-.784-1.345c1.365-.962 2.7-1.963 3.98-3.024l1.17 1.16a6 6 0 0 0 8.456-8.521l-1.106-1.1c1.061-1.267 2.062-2.583 3.025-3.929l1.444.827a6 6 0 1 0 5.965-10.413l-1.361-.779c.691-1.488 1.338-3 1.916-4.546l1.567.417a6 6 0 0 0 3.082-11.6l-1.532-.404c.275-1.605.5-3.228.648-4.871zm-66.521 46.721c-29.334 0-53.2-23.65-53.2-52.721s23.865-52.721 53.2-52.721 53.2 23.651 53.2 52.721-23.866 52.721-53.2 52.721z" fill="#426577"/><path d="m240.908 500c-62.016 0-112.472-50.069-112.472-111.612s50.456-111.613 112.472-111.613 112.473 50.069 112.473 111.613-50.455 111.612-112.473 111.612zm0-211.225c-55.4 0-100.472 44.686-100.472 99.613s45.072 99.612 100.472 99.612 100.473-44.686 100.473-99.612-45.072-99.613-100.473-99.613z" fill="#3e3e68"/><path d="m107.739 199.855c-52.186 0-94.642-42.136-94.642-93.928s42.456-93.927 94.642-93.927 94.643 42.136 94.643 93.927-42.456 93.928-94.643 93.928zm0-175.855c-45.569 0-82.639 36.752-82.639 81.927s37.073 81.928 82.642 81.928 82.643-36.753 82.643-81.928-37.076-81.927-82.646-81.927z" fill="#30353f"/><path d="m491.371 205.458a57.051 57.051 0 0 0 0-56.665c-.071-.153-.145-.305-.23-.454a6.155 6.155 0 0 0 -.335-.52 58.239 58.239 0 0 0 -20.5-20.311c-.13-.091-.262-.181-.4-.263a6.175 6.175 0 0 0 -.56-.288 58.2 58.2 0 0 0 -56.948 0 6.175 6.175 0 0 0 -.56.288c-.141.082-.273.172-.4.263a58.258 58.258 0 0 0 -20.494 20.31 6.173 6.173 0 0 0 -.335.521c-.084.149-.159.3-.23.454a57.051 57.051 0 0 0 0 56.665c.071.153.146.306.231.456.078.134.168.255.254.381a58.237 58.237 0 0 0 20.575 20.45c.13.091.263.181.4.263s.286.144.43.213a58.19 58.19 0 0 0 57.209 0c.143-.069.289-.131.429-.213s.274-.172.4-.263a58.237 58.237 0 0 0 20.575-20.45c.086-.126.176-.247.254-.381.09-.15.164-.303.235-.456zm-22.544 7.87a5.994 5.994 0 0 0 -10.308 5.919 45.988 45.988 0 0 1 -11.7 3.1 5.993 5.993 0 0 0 -11.884 0 45.97 45.97 0 0 1 -11.7-3.1 5.994 5.994 0 0 0 -10.309-5.919 46.174 46.174 0 0 1 -8.545-8.457 5.995 5.995 0 0 0 -6.01-10.262 44.876 44.876 0 0 1 -3.117-11.535 5.995 5.995 0 0 0 0-11.9 44.889 44.889 0 0 1 3.118-11.535 5.994 5.994 0 0 0 6.009-10.261 46.225 46.225 0 0 1 8.544-8.456 5.995 5.995 0 0 0 10.31-5.919 45.93 45.93 0 0 1 11.7-3.1 5.993 5.993 0 0 0 11.884 0 45.948 45.948 0 0 1 11.7 3.1 5.994 5.994 0 0 0 10.309 5.919 46.225 46.225 0 0 1 8.544 8.456 5.993 5.993 0 0 0 6.009 10.261 44.885 44.885 0 0 1 3.118 11.536 5.994 5.994 0 0 0 0 11.9 44.917 44.917 0 0 1 -3.117 11.535 5.995 5.995 0 0 0 -6.01 10.262 46.174 46.174 0 0 1 -8.545 8.456z" fill="#c1a05f"/></svg>